<svg xmlns="http://www.w3.org/2000/svg" xmlns:xlink="http://www.w3.org/1999/xlink" xmlns:lucid="lucid" width="1360" height="1760"><g transform="translate(0 0)" lucid:page-tab-id="0_0"><path d="M100 100h480v260H100z" fill="#fff"/><path d="M106 100h4m4 0h4m4 0h4m4 0h4m4 0h4m4 0h4m4 0h4m4 0h4m4 0h4m4 0h4m4 0h4m4 0h4m4 0h4m4 0h4m4 0h4m4 0h4m4 0h4m4 0h4m4 0h4m4 0h4m4 0h4m4 0h4m4 0h4m4 0h4m4 0h4m4 0h4m4 0h4m4 0h4m4 0h4m4 0h4m4 0h4m4 0h4m4 0h4m4 0h4m4 0h4m4 0h4m4 0h4m4 0h4m4 0h4m4 0h4m4 0h4m4 0h4m4 0h4m4 0h4m4 0h4m4 0h4m4 0h4m4 0h4m4 0h4m4 0h4m4 0h4m4 0h4m4 0h4m4 0h4m4 0h4m4 0h4m4 0h4m4 0h4m4 0h4m4 0h2v1.97m0 3.94v3.95m0 3.94v3.93m0 3.94v3.94m0 3.95v3.93m0 3.94v3.94m0 3.94v3.94m0 3.94v3.94m0 3.94V165m0 3.94v3.94m0 3.94v3.94m0 3.94v3.94m0 3.94v3.94m0 3.93v3.94m0 3.93v3.94m0 3.94v3.95m0 3.94v3.93m0 3.94v3.94m0 3.95v3.94m0 3.93v3.94m0 3.94v3.95m0 3.93v3.94m0 3.94v3.94m0 3.94v3.94m0 3.94v3.94m0 3.94v3.94m0 3.94v3.94m0 3.94v3.94m0 3.94v3.94m0 3.94v3.93m0 3.94v3.93m0 3.94v3.94m0 3.95v3.94m0 3.93V360h-2m-4 0h-4m-4 0h-4m-4 0h-4m-4 0h-4m-4 0h-4m-4 0h-4m-4 0h-4m-4 0h-4m-4 0h-4m-4 0h-4m-4 0h-4m-4 0h-4m-4 0h-4m-4 0h-4m-4 0h-4m-4 0h-4m-4 0h-4m-4 0h-4m-4 0h-4m-4 0h-4m-4 0h-4m-4 0h-4m-4 0h-4m-4 0h-4m-4 0h-4m-4 0h-4m-4 0h-4m-4 0h-4m-4 0h-4m-4 0h-4m-4 0h-4m-4 0h-4m-4 0h-4m-4 0h-4m-4 0h-4m-4 0h-4m-4 0h-4m-4 0h-4m-4 0h-4m-4 0h-4m-4 0h-4m-4 0h-4m-4 0h-4m-4 0h-4m-4 0h-4m-4 0h-4m-4 0h-4m-4 0h-4m-4 0h-4m-4 0h-4m-4 0h-4m-4 0h-4m-4 0h-4m-4 0h-4m-4 0h-4m-4 0h-4m-4 0h-4m-4 0h-4m-4 0h-4m-4 0h-2v-1.97m0-3.94v-3.95m0-3.94v-3.93m0-3.94v-3.94m0-3.95v-3.93m0-3.94v-3.94m0-3.94v-3.94m0-3.94v-3.94m0-3.94V295m0-3.94v-3.94m0-3.94v-3.94m0-3.94v-3.94m0-3.94v-3.94m0-3.93v-3.94m0-3.93v-3.94m0-3.94v-3.95m0-3.94v-3.93m0-3.94v-3.94m0-3.95v-3.94m0-3.93v-3.94m0-3.94v-3.95m0-3.93v-3.94m0-3.94v-3.94m0-3.94v-3.94m0-3.94v-3.94m0-3.94v-3.94m0-3.94v-3.94m0-3.94v-3.94m0-3.94v-3.94m0-3.94v-3.93m0-3.94v-3.93m0-3.94v-3.94m0-3.95v-3.94m0-3.93V100h2" stroke="#999" fill="none"/><path d="M36 40h240v60H36z" stroke="#000" stroke-opacity="0" stroke-width="2" fill="#fff" fill-opacity="0"/><use xlink:href="#a" transform="matrix(1,0,0,1,41,45) translate(78.07499999999999 28.6)"/><path d="M120 120h440v100H120z" stroke="#000" stroke-width="2" fill="#fff"/><use xlink:href="#b" transform="matrix(1,0,0,1,125,125) translate(103.64999999999998 48.6)"/><use xlink:href="#c" transform="matrix(1,0,0,1,125,125) translate(181.59999999999997 48.6)"/><use xlink:href="#d" transform="matrix(1,0,0,1,125,125) translate(229.54999999999998 48.6)"/><use xlink:href="#e" transform="matrix(1,0,0,1,125,125) translate(279.5 48.6)"/><path d="M120 240h440v100H120z" stroke="#000" stroke-width="2" fill="#fff"/><use xlink:href="#f" transform="matrix(1,0,0,1,125,245) translate(114.65 48.6)"/><use xlink:href="#g" transform="matrix(1,0,0,1,125,245) translate(174.5 48.6)"/><use xlink:href="#h" transform="matrix(1,0,0,1,125,245) translate(194.5 48.6)"/><use xlink:href="#i" transform="matrix(1,0,0,1,125,245) translate(242.45 48.6)"/><path d="M607 100h480v260H607z" fill="#fff"/><path d="M613 100h4m4 0h4m4 0h4m4 0h4m4 0h4m4 0h4m4 0h4m4 0h4m4 0h4m4 0h4m4 0h4m4 0h4m4 0h4m4 0h4m4 0h4m4 0h4m4 0h4m4 0h4m4 0h4m4 0h4m4 0h4m4 0h4m4 0h4m4 0h4m4 0h4m4 0h4m4 0h4m4 0h4m4 0h4m4 0h4m4 0h4m4 0h4m4 0h4m4 0h4m4 0h4m4 0h4m4 0h4m4 0h4m4 0h4m4 0h4m4 0h4m4 0h4m4 0h4m4 0h4m4 0h4m4 0h4m4 0h4m4 0h4m4 0h4m4 0h4m4 0h4m4 0h4m4 0h4m4 0h4m4 0h4m4 0h4m4 0h4m4 0h4m4 0h4m4 0h2v1.97m0 3.94v3.95m0 3.94v3.93m0 3.94v3.94m0 3.95v3.93m0 3.94v3.94m0 3.94v3.94m0 3.94v3.94m0 3.94V165m0 3.94v3.94m0 3.94v3.94m0 3.94v3.94m0 3.94v3.94m0 3.93v3.94m0 3.93v3.94m0 3.94v3.95m0 3.94v3.93m0 3.94v3.94m0 3.95v3.94m0 3.93v3.94m0 3.94v3.95m0 3.93v3.94m0 3.94v3.94m0 3.94v3.94m0 3.94v3.94m0 3.94v3.94m0 3.94v3.94m0 3.94v3.94m0 3.94v3.94m0 3.94v3.93m0 3.94v3.93m0 3.94v3.94m0 3.95v3.94m0 3.93V360h-2m-4 0h-4m-4 0h-4m-4 0h-4m-4 0h-4m-4 0h-4m-4 0h-4m-4 0h-4m-4 0h-4m-4 0h-4m-4 0h-4m-4 0h-4m-4 0h-4m-4 0h-4m-4 0h-4m-4 0h-4m-4 0h-4m-4 0h-4m-4 0h-4m-4 0h-4m-4 0h-4m-4 0h-4m-4 0h-4m-4 0h-4m-4 0h-4m-4 0h-4m-4 0h-4m-4 0h-4m-4 0h-4m-4 0h-4m-4 0h-4m-4 0h-4m-4 0h-4m-4 0h-4m-4 0h-4m-4 0h-4m-4 0h-4m-4 0h-4m-4 0h-4m-4 0h-4m-4 0h-4m-4 0h-4m-4 0h-4m-4 0h-4m-4 0h-4m-4 0h-4m-4 0h-4m-4 0h-4m-4 0h-4m-4 0h-4m-4 0h-4m-4 0h-4m-4 0h-4m-4 0h-4m-4 0h-4m-4 0h-4m-4 0h-4m-4 0h-4m-4 0h-4m-4 0h-4m-4 0h-2v-1.97m0-3.94v-3.95m0-3.94v-3.93m0-3.94v-3.94m0-3.95v-3.93m0-3.94v-3.94m0-3.94v-3.94m0-3.94v-3.94m0-3.94V295m0-3.94v-3.94m0-3.94v-3.94m0-3.94v-3.94m0-3.94v-3.94m0-3.93v-3.94m0-3.93v-3.94m0-3.94v-3.95m0-3.94v-3.93m0-3.94v-3.94m0-3.95v-3.94m0-3.93v-3.94m0-3.94v-3.95m0-3.93v-3.94m0-3.94v-3.94m0-3.94v-3.94m0-3.94v-3.94m0-3.94v-3.94m0-3.94v-3.94m0-3.94v-3.94m0-3.94v-3.94m0-3.94v-3.93m0-3.94v-3.93m0-3.94v-3.94m0-3.95v-3.94m0-3.93V100h2" stroke="#999" fill="none"/><path d="M572 40h240v60H572z" stroke="#000" stroke-opacity="0" stroke-width="2" fill="#fff" fill-opacity="0"/><use xlink:href="#j" transform="matrix(1,0,0,1,577,45) translate(48.675 28.6)"/><use xlink:href="#k" transform="matrix(1,0,0,1,577,45) translate(98.525 28.6)"/><path d="M627 120h440v220H627z" stroke="#000" stroke-width="2" fill="#fff"/><use xlink:href="#l" transform="matrix(1,0,0,1,632,125) translate(76.125 108.60000000000001)"/><use xlink:href="#m" transform="matrix(1,0,0,1,632,125) translate(124.075 108.60000000000001)"/><use xlink:href="#n" transform="matrix(1,0,0,1,632,125) translate(213.97500000000002 108.60000000000001)"/><use xlink:href="#o" transform="matrix(1,0,0,1,632,125) translate(248.97500000000002 108.60000000000001)"/><path d="M100 420h987v140H100z" fill="#fff"/><path d="M106.02 420h4m4.02 0h4m4.03 0h4m4.02 0h4m4.02 0h4m4.02 0h4m4.02 0h4.02m4 0h4.02m4 0h4.03m4 0h4.02m4 0h4.02m4.02 0h4m4 0h4.02m4.02 0h4m4.02 0h4m4.02 0h4.02m4 0h4.02m4 0h4.03m4 0h4.02m4 0h4.02m4 0h4.02m4 0h4.02m4 0h4.03m4 0h4.02m4 0h4.02m4 0h4.02m4 0h4.02m4.02 0h4m4.02 0h4m4.03 0h4m4.02 0h4m4.02 0h4.02m4 0h4m4.02 0h4.02m4 0h4.02m4 0h4.02m4.02 0h4m4.02 0h4m4.03 0h4m4.02 0h4m4.02 0h4m4.02 0h4m4.02 0h4m4.03 0h4m4.02 0h4m4.02 0h4m4.02 0h4m4.02 0h4.02m4 0h4.02m4 0h4.03m4 0h4.02m4 0h4.02m4.02 0h4m4 0h4.02m4.02 0h4m4.02 0h4m4.02 0h4.02m4 0h4.02m4 0h4.03m4 0h4.02m4 0h4.02m4 0h4.02m4 0h4.02m4 0h4.03m4 0h4.02m4 0h4.02m4 0h4.02m4 0h4.02m4.02 0h4m4.02 0h4m4.03 0h4m4.02 0h4m4.02 0h4.02m4 0h4m4.02 0h4.02m4 0h4.02m4 0h4.02m4.02 0h4m4.02 0h4m4.03 0h4m4.02 0h4m4.02 0h4m4.02 0h4m4.02 0h4m4.03 0h4m4.02 0h4m4.02 0h4m4.02 0h4m4.02 0h4.02m4 0h4.02m4 0h4.03m4 0h4.02m4 0h4.02m4.02 0h4m4 0h4.02m4.02 0h4m4.02 0h4m4.02 0h4.02m4 0h4.02m4 0h4.03m4 0h4.02m4 0h4.02m4 0h4.02m4 0h4.02m4 0h4.03m4 0h4.02m4 0h4.02m4 0h4.02m4 0h4.02m4.02 0h4m4.02 0h4m4.03 0h4m4.02 0h4m4.02 0h4.02m4 0h4m4.02 0h4.02m4 0h4.02m4 0h4.02m4.02 0h4m4.02 0h4m4.03 0h4m4.02 0h4m4.02 0h2v1.94m0 3.9v3.88m0 3.9v3.88m0 3.9v3.88m0 3.9v3.88m0 3.88v3.9m0 3.88v3.9m0 3.88v3.9m0 3.88v3.9m0 3.88v3.88m0 3.9v3.88m0 3.9v3.88m0 3.9v3.88m0 3.9v3.88m0 3.88v3.9m0 3.88v3.9m0 3.88v3.9m0 3.88v3.9m0 3.88V560h-2m-4.02 0h-4m-4.02 0h-4m-4.03 0h-4m-4.02 0h-4m-4.02 0h-4m-4.02 0h-4m-4.02 0h-4.02m-4 0h-4.02m-4 0h-4.03m-4 0h-4.02m-4 0h-4.02m-4.02 0h-4m-4 0h-4.02m-4.02 0h-4m-4.02 0h-4m-4.02 0h-4.02m-4 0h-4.02m-4 0h-4.03m-4 0h-4.02m-4 0h-4.02m-4 0h-4.02m-4 0h-4.02m-4 0h-4.03m-4 0h-4.02m-4 0h-4.02m-4 0h-4.02m-4 0h-4.02m-4.02 0h-4m-4.02 0h-4m-4.03 0h-4m-4.02 0h-4m-4.02 0h-4.02m-4 0h-4m-4.02 0h-4.02m-4 0h-4.02m-4 0h-4.02m-4.02 0h-4m-4.02 0h-4m-4.03 0h-4m-4.02 0h-4m-4.02 0h-4m-4.02 0h-4m-4.02 0h-4m-4.03 0h-4m-4.02 0h-4m-4.02 0h-4m-4.02 0h-4m-4.02 0h-4.02m-4 0h-4.02m-4 0h-4.03m-4 0h-4.02m-4 0h-4.02m-4.02 0h-4m-4 0h-4.02m-4.02 0h-4m-4.02 0h-4m-4.02 0h-4.02m-4 0h-4.02m-4 0h-4.03m-4 0h-4.02m-4 0h-4.02m-4 0h-4.02m-4 0h-4.02m-4 0h-4.03m-4 0h-4.02m-4 0h-4.02m-4 0h-4.02m-4 0h-4.02m-4.02 0h-4m-4.02 0h-4m-4.03 0h-4m-4.02 0h-4m-4.02 0h-4.02m-4 0h-4m-4.02 0h-4.02m-4 0h-4.02m-4 0h-4.02m-4.02 0h-4m-4.02 0h-4m-4.03 0h-4m-4.02 0h-4m-4.02 0h-4m-4.02 0h-4m-4.02 0h-4m-4.03 0h-4m-4.02 0h-4m-4.02 0h-4m-4.02 0h-4m-4.02 0h-4.02m-4 0h-4.02m-4 0h-4.03m-4 0h-4.02m-4 0h-4.02m-4.02 0h-4m-4 0h-4.02m-4.02 0h-4m-4.02 0h-4m-4.02 0h-4.02m-4 0h-4.02m-4 0h-4.03m-4 0h-4.02m-4 0h-4.02m-4 0h-4.02m-4 0h-4.02m-4 0h-4.03m-4 0h-4.02m-4 0h-4.02m-4 0h-4.02m-4 0h-4.02m-4.02 0h-4m-4.02 0h-4m-4.03 0h-4m-4.02 0h-4m-4.02 0h-4.02m-4 0h-4m-4.02 0h-4.02m-4 0h-4.02m-4 0h-4.02m-4.02 0h-4m-4.02 0h-4m-4.03 0h-4m-4.02 0h-4m-4.02 0h-2v-1.94m0-3.9v-3.88m0-3.9v-3.88m0-3.9v-3.88m0-3.9v-3.88m0-3.88v-3.9m0-3.88v-3.9m0-3.88v-3.9m0-3.88v-3.9m0-3.88v-3.88m0-3.9v-3.88m0-3.9v-3.88m0-3.9v-3.88m0-3.9v-3.88m0-3.88v-3.9m0-3.88v-3.9m0-3.88v-3.9m0-3.88v-3.9m0-3.88V420h2" stroke="#999" fill="none"/><path d="M41 360h240v60H41z" stroke="#000" stroke-opacity="0" stroke-width="2" fill="#fff" fill-opacity="0"/><use xlink:href="#p" transform="matrix(1,0,0,1,46,365) translate(74.07499999999999 28.6)"/><path d="M120 440h947v100H120z" stroke="#000" stroke-width="2" fill="#fff"/><use xlink:href="#q" transform="matrix(1,0,0,1,125,445) translate(322.7 48.6)"/><use xlink:href="#r" transform="matrix(1,0,0,1,125,445) translate(412.65 48.6)"/><use xlink:href="#s" transform="matrix(1,0,0,1,125,445) translate(456.65 48.6)"/><use xlink:href="#t" transform="matrix(1,0,0,1,125,445) translate(543.55 48.6)"/><path d="M119 170H79v120h21.76" stroke="#999" stroke-width="2" fill="none"/><path d="M120 171h-1v-2h1zM115.76 290l-14.26 4.64v-9.28z" fill="#999"/><path d="M119 290l-18.5 6v-12zm-16.5 3.26l10.03-3.26-10.03-3.26z" fill="#999"/><path d="M340 99.5V30h507v51.26" stroke="#b2b2b2" stroke-width="2" fill="none"/><path d="M341 100h-2v-.5h2zM847 96.26L842.36 82h9.28z" fill="#b2b2b2"/><path d="M847 99.5L841 81h12zM843.74 83L847 93.03 850.26 83z" fill="#b2b2b2"/><path d="M847 360.5V390H593.5v11.26" stroke="#999" stroke-width="2" fill="none"/><path d="M848 360.5h-2v-.5h2zM593.5 416.26L588.86 402h9.28z" fill="#999"/><path d="M593.5 419.5l-6-18.5h12zm-3.26-16.5l3.26 10.03 3.26-10.03z" fill="#999"/><defs><path d="M230 0l2-204L168 0h-37L68-204 70 0H24v-248h70l56 185 57-185h69V0h-46" id="u"/><path d="M133-34C117-15 103 5 69 4 32 3 11-16 11-54c-1-60 55-63 116-61 1-26-3-47-28-47-18 1-26 9-28 27l-52-2c7-38 36-58 82-57s74 22 75 68l1 82c-1 14 12 18 25 15v27c-30 8-71 5-69-32zm-48 3c29 0 43-24 42-57-32 0-66-3-65 30 0 17 8 27 23 27" id="v"/><path d="M135-194c87-1 58 113 63 194h-50c-7-57 23-157-34-157-59 0-34 97-39 157H25l-1-190h47c2 12-1 28 3 38 12-26 28-41 61-42" id="w"/><path d="M195-6C206 82 75 100 31 46c-4-6-6-13-8-21l49-6c3 16 16 24 34 25 40 0 42-37 40-79-11 22-30 35-61 35-53 0-70-43-70-97 0-56 18-96 73-97 30 0 46 14 59 34l2-30h47zm-90-29c32 0 41-27 41-63 0-35-9-62-40-62-32 0-39 29-40 63 0 36 9 62 39 62" id="x"/><path d="M185-48c-13 30-37 53-82 52C43 2 14-33 14-96s30-98 90-98c62 0 83 45 84 108H66c0 31 8 55 39 56 18 0 30-7 34-22zm-45-69c5-46-57-63-70-21-2 6-4 13-4 21h74" id="y"/><path d="M135-150c-39-12-60 13-60 57V0H25l-1-190h47c2 13-1 29 3 40 6-28 27-53 61-41v41" id="z"/><g id="a"><use transform="matrix(0.05,0,0,0.05,0,0)" xlink:href="#u"/><use transform="matrix(0.05,0,0,0.05,14.950000000000001,0)" xlink:href="#v"/><use transform="matrix(0.05,0,0,0.05,24.950000000000003,0)" xlink:href="#w"/><use transform="matrix(0.05,0,0,0.05,35.900000000000006,0)" xlink:href="#v"/><use transform="matrix(0.05,0,0,0.05,45.900000000000006,0)" xlink:href="#x"/><use transform="matrix(0.05,0,0,0.05,56.85,0)" xlink:href="#y"/><use transform="matrix(0.05,0,0,0.05,66.85000000000001,0)" xlink:href="#z"/></g><path d="M160-131c35 5 61 23 61 61C221 17 115-2 30 0v-248c76 3 177-17 177 60 0 33-19 50-47 57zm-97-11c50-1 110 9 110-42 0-47-63-36-110-37v79zm0 115c55-2 124 14 124-45 0-56-70-42-124-44v89" id="A"/><path d="M84 4C-5 8 30-112 23-190h32v120c0 31 7 50 39 49 72-2 45-101 50-169h31l1 190h-30c-1-10 1-25-2-33-11 22-28 36-60 37" id="B"/><path d="M135-143c-3-34-86-38-87 0 15 53 115 12 119 90S17 21 10-45l28-5c4 36 97 45 98 0-10-56-113-15-118-90-4-57 82-63 122-42 12 7 21 19 24 35" id="C"/><path d="M24-231v-30h32v30H24zM24 0v-190h32V0H24" id="D"/><path d="M117-194c89-4 53 116 60 194h-32v-121c0-31-8-49-39-48C34-167 62-67 57 0H25l-1-190h30c1 10-1 24 2 32 11-22 29-35 61-36" id="E"/><path d="M100-194c63 0 86 42 84 106H49c0 40 14 67 53 68 26 1 43-12 49-29l28 8c-11 28-37 45-77 45C44 4 14-33 15-96c1-61 26-98 85-98zm52 81c6-60-76-77-97-28-3 7-6 17-6 28h103" id="F"/><g id="b"><use transform="matrix(0.05,0,0,0.05,0,0)" xlink:href="#A"/><use transform="matrix(0.05,0,0,0.05,12,0)" xlink:href="#B"/><use transform="matrix(0.05,0,0,0.05,22,0)" xlink:href="#C"/><use transform="matrix(0.05,0,0,0.05,31,0)" xlink:href="#D"/><use transform="matrix(0.05,0,0,0.05,34.95,0)" xlink:href="#E"/><use transform="matrix(0.05,0,0,0.05,44.95,0)" xlink:href="#F"/><use transform="matrix(0.05,0,0,0.05,54.95,0)" xlink:href="#C"/><use transform="matrix(0.05,0,0,0.05,63.95,0)" xlink:href="#C"/></g><path d="M30 0v-248h33v221h125V0H30" id="G"/><path d="M100-194c62-1 85 37 85 99 1 63-27 99-86 99S16-35 15-95c0-66 28-99 85-99zM99-20c44 1 53-31 53-75 0-43-8-75-51-75s-53 32-53 75 10 74 51 75" id="H"/><path d="M177-190C167-65 218 103 67 71c-23-6-38-20-44-43l32-5c15 47 100 32 89-28v-30C133-14 115 1 83 1 29 1 15-40 15-95c0-56 16-97 71-98 29-1 48 16 59 35 1-10 0-23 2-32h30zM94-22c36 0 50-32 50-73 0-42-14-75-50-75-39 0-46 34-46 75s6 73 46 73" id="I"/><path d="M96-169c-40 0-48 33-48 73s9 75 48 75c24 0 41-14 43-38l32 2c-6 37-31 61-74 61-59 0-76-41-82-99-10-93 101-131 147-64 4 7 5 14 7 22l-32 3c-4-21-16-35-41-35" id="J"/><g id="c"><use transform="matrix(0.05,0,0,0.05,0,0)" xlink:href="#G"/><use transform="matrix(0.05,0,0,0.05,10,0)" xlink:href="#H"/><use transform="matrix(0.05,0,0,0.05,20,0)" xlink:href="#I"/><use transform="matrix(0.05,0,0,0.05,30,0)" xlink:href="#D"/><use transform="matrix(0.05,0,0,0.05,33.95,0)" xlink:href="#J"/></g><path d="M141-36C126-15 110 5 73 4 37 3 15-17 15-53c-1-64 63-63 125-63 3-35-9-54-41-54-24 1-41 7-42 31l-33-3c5-37 33-52 76-52 45 0 72 20 72 64v82c-1 20 7 32 28 27v20c-31 9-61-2-59-35zM48-53c0 20 12 33 32 33 41-3 63-29 60-74-43 2-92-5-92 41" id="K"/><path d="M179-190L93 31C79 59 56 82 12 73V49c39 6 53-20 64-50L1-190h34L92-34l54-156h33" id="L"/><path d="M114-163C36-179 61-72 57 0H25l-1-190h30c1 12-1 29 2 39 6-27 23-49 58-41v29" id="M"/><g id="d"><use transform="matrix(0.05,0,0,0.05,0,0)" xlink:href="#G"/><use transform="matrix(0.05,0,0,0.05,10,0)" xlink:href="#K"/><use transform="matrix(0.05,0,0,0.05,20,0)" xlink:href="#L"/><use transform="matrix(0.05,0,0,0.05,29,0)" xlink:href="#F"/><use transform="matrix(0.05,0,0,0.05,39,0)" xlink:href="#M"/></g><path d="M87 75C49 33 22-17 22-94c0-76 28-126 65-167h31c-38 41-64 92-64 168S80 34 118 75H87" id="N"/><path d="M30-248c118-7 216 8 213 122C240-48 200 0 122 0H30v-248zM63-27c89 8 146-16 146-99s-60-101-146-95v194" id="O"/><path d="M185-189c-5-48-123-54-124 2 14 75 158 14 163 119 3 78-121 87-175 55-17-10-28-26-33-46l33-7c5 56 141 63 141-1 0-78-155-14-162-118-5-82 145-84 179-34 5 7 8 16 11 25" id="P"/><path d="M33-261c38 41 65 92 65 168S71 34 33 75H2C39 34 66-17 66-93S39-220 2-261h31" id="Q"/><g id="e"><use transform="matrix(0.05,0,0,0.05,0,0)" xlink:href="#N"/><use transform="matrix(0.05,0,0,0.05,5.95,0)" xlink:href="#O"/><use transform="matrix(0.05,0,0,0.05,18.900000000000002,0)" xlink:href="#P"/><use transform="matrix(0.05,0,0,0.05,30.900000000000002,0)" xlink:href="#G"/><use transform="matrix(0.05,0,0,0.05,40.900000000000006,0)" xlink:href="#Q"/></g><path d="M115-194c53 0 69 39 70 98 0 66-23 100-70 100C84 3 66-7 56-30L54 0H23l1-261h32v101c10-23 28-34 59-34zm-8 174c40 0 45-34 45-75 0-40-5-75-45-74-42 0-51 32-51 76 0 43 10 73 51 73" id="R"/><g id="f"><use transform="matrix(0.05,0,0,0.05,0,0)" xlink:href="#G"/><use transform="matrix(0.05,0,0,0.05,10,0)" xlink:href="#D"/><use transform="matrix(0.05,0,0,0.05,13.949999999999998,0)" xlink:href="#R"/><use transform="matrix(0.05,0,0,0.05,23.95,0)" xlink:href="#M"/><use transform="matrix(0.05,0,0,0.05,29.899999999999995,0)" xlink:href="#K"/><use transform="matrix(0.05,0,0,0.05,39.9,0)" xlink:href="#M"/><use transform="matrix(0.05,0,0,0.05,45.85,0)" xlink:href="#L"/></g><path d="M101-234c-31-9-42 10-38 44h38v23H63V0H32v-167H5v-23h27c-7-52 17-82 69-68v24" id="S"/><g id="g"><use transform="matrix(0.05,0,0,0.05,0,0)" xlink:href="#H"/><use transform="matrix(0.05,0,0,0.05,10,0)" xlink:href="#S"/></g><path d="M212-179c-10-28-35-45-73-45-59 0-87 40-87 99 0 60 29 101 89 101 43 0 62-24 78-52l27 14C228-24 195 4 139 4 59 4 22-46 18-125c-6-104 99-153 187-111 19 9 31 26 39 46" id="T"/><path d="M85-194c31 0 48 13 60 33l-1-100h32l1 261h-30c-2-10 0-23-3-31C134-8 116 4 85 4 32 4 16-35 15-94c0-66 23-100 70-100zm9 24c-40 0-46 34-46 75 0 40 6 74 45 74 42 0 51-32 51-76 0-42-9-74-50-73" id="U"/><g id="h"><use transform="matrix(0.05,0,0,0.05,0,0)" xlink:href="#T"/><use transform="matrix(0.05,0,0,0.05,12.950000000000001,0)" xlink:href="#H"/><use transform="matrix(0.05,0,0,0.05,22.950000000000003,0)" xlink:href="#U"/><use transform="matrix(0.05,0,0,0.05,32.95,0)" xlink:href="#F"/></g><path d="M24 0v-261h32V0H24" id="V"/><path d="M210-169c-67 3-38 105-44 169h-31v-121c0-29-5-50-35-48C34-165 62-65 56 0H25l-1-190h30c1 10-1 24 2 32 10-44 99-50 107 0 11-21 27-35 58-36 85-2 47 119 55 194h-31v-121c0-29-5-49-35-48" id="W"/><path d="M59-47c-2 24 18 29 38 22v24C64 9 27 4 27-40v-127H5v-23h24l9-43h21v43h35v23H59v120" id="X"/><g id="i"><use transform="matrix(0.05,0,0,0.05,0,0)" xlink:href="#F"/><use transform="matrix(0.05,0,0,0.05,10,0)" xlink:href="#V"/><use transform="matrix(0.05,0,0,0.05,13.949999999999998,0)" xlink:href="#F"/><use transform="matrix(0.05,0,0,0.05,23.95,0)" xlink:href="#W"/><use transform="matrix(0.05,0,0,0.05,38.9,0)" xlink:href="#F"/><use transform="matrix(0.05,0,0,0.05,48.9,0)" xlink:href="#E"/><use transform="matrix(0.05,0,0,0.05,58.900000000000006,0)" xlink:href="#X"/><use transform="matrix(0.05,0,0,0.05,63.900000000000006,0)" xlink:href="#C"/></g><path d="M67-125c0 53 21 87 73 88 37 1 54-22 65-47l45 17C233-25 199 4 140 4 58 4 20-42 15-125 8-235 124-281 211-232c18 10 29 29 36 50l-46 12c-8-25-30-41-62-41-52 0-71 34-72 86" id="Y"/><path d="M110-194c64 0 96 36 96 99 0 64-35 99-97 99-61 0-95-36-95-99 0-62 34-99 96-99zm-1 164c35 0 45-28 45-65 0-40-10-65-43-65-34 0-45 26-45 65 0 36 10 65 43 65" id="Z"/><path d="M88-194c31-1 46 15 58 34l-1-101h50l1 261h-48c-2-10 0-23-3-31C134-8 116 4 84 4 32 4 16-41 15-95c0-56 19-97 73-99zm17 164c33 0 40-30 41-66 1-37-9-64-41-64s-38 30-39 65c0 43 13 65 39 65" id="aa"/><g id="j"><use transform="matrix(0.05,0,0,0.05,0,0)" xlink:href="#Y"/><use transform="matrix(0.05,0,0,0.05,12.950000000000001,0)" xlink:href="#Z"/><use transform="matrix(0.05,0,0,0.05,23.900000000000002,0)" xlink:href="#aa"/><use transform="matrix(0.05,0,0,0.05,34.85,0)" xlink:href="#y"/></g><path d="M115-3C79 11 28 4 28-45v-112H4v-33h27l15-45h31v45h36v33H77v99c-1 23 16 31 38 25v30" id="ab"/><g id="k"><use transform="matrix(0.05,0,0,0.05,0,0)" xlink:href="#x"/><use transform="matrix(0.05,0,0,0.05,10.950000000000001,0)" xlink:href="#y"/><use transform="matrix(0.05,0,0,0.05,20.950000000000003,0)" xlink:href="#w"/><use transform="matrix(0.05,0,0,0.05,31.900000000000006,0)" xlink:href="#y"/><use transform="matrix(0.05,0,0,0.05,41.900000000000006,0)" xlink:href="#z"/><use transform="matrix(0.05,0,0,0.05,48.900000000000006,0)" xlink:href="#v"/><use transform="matrix(0.05,0,0,0.05,58.900000000000006,0)" xlink:href="#ab"/><use transform="matrix(0.05,0,0,0.05,64.85000000000001,0)" xlink:href="#Z"/><use transform="matrix(0.05,0,0,0.05,75.80000000000001,0)" xlink:href="#z"/></g><g id="l"><use transform="matrix(0.05,0,0,0.05,0,0)" xlink:href="#T"/><use transform="matrix(0.05,0,0,0.05,12.950000000000001,0)" xlink:href="#H"/><use transform="matrix(0.05,0,0,0.05,22.950000000000003,0)" xlink:href="#U"/><use transform="matrix(0.05,0,0,0.05,32.95,0)" xlink:href="#F"/></g><g id="m"><use transform="matrix(0.05,0,0,0.05,0,0)" xlink:href="#I"/><use transform="matrix(0.05,0,0,0.05,10,0)" xlink:href="#F"/><use transform="matrix(0.05,0,0,0.05,20,0)" xlink:href="#E"/><use transform="matrix(0.05,0,0,0.05,30,0)" xlink:href="#F"/><use transform="matrix(0.05,0,0,0.05,40,0)" xlink:href="#M"/><use transform="matrix(0.05,0,0,0.05,45.95,0)" xlink:href="#K"/><use transform="matrix(0.05,0,0,0.05,55.95,0)" xlink:href="#X"/><use transform="matrix(0.05,0,0,0.05,60.95,0)" xlink:href="#D"/><use transform="matrix(0.05,0,0,0.05,64.9,0)" xlink:href="#H"/><use transform="matrix(0.05,0,0,0.05,74.9,0)" xlink:href="#E"/></g><g id="n"><use transform="matrix(0.05,0,0,0.05,0,0)" xlink:href="#K"/><use transform="matrix(0.05,0,0,0.05,10,0)" xlink:href="#E"/><use transform="matrix(0.05,0,0,0.05,20,0)" xlink:href="#U"/></g><g id="o"><use transform="matrix(0.05,0,0,0.05,0,0)" xlink:href="#W"/><use transform="matrix(0.05,0,0,0.05,14.950000000000001,0)" xlink:href="#K"/><use transform="matrix(0.05,0,0,0.05,24.950000000000003,0)" xlink:href="#E"/><use transform="matrix(0.05,0,0,0.05,34.95,0)" xlink:href="#K"/><use transform="matrix(0.05,0,0,0.05,44.95,0)" xlink:href="#I"/><use transform="matrix(0.05,0,0,0.05,54.95,0)" xlink:href="#F"/><use transform="matrix(0.05,0,0,0.05,64.95,0)" xlink:href="#W"/><use transform="matrix(0.05,0,0,0.05,79.9,0)" xlink:href="#F"/><use transform="matrix(0.05,0,0,0.05,89.9,0)" xlink:href="#E"/><use transform="matrix(0.05,0,0,0.05,99.9,0)" xlink:href="#X"/></g><path d="M24 0v-248h195v40H76v63h132v40H76v65h150V0H24" id="ac"/><path d="M128 0H69L1-190h53L99-40l48-150h52" id="ad"/><path d="M25 0v-261h50V0H25" id="ae"/><path d="M85 4C-2 5 27-109 22-190h50c7 57-23 150 33 157 60-5 35-97 40-157h50l1 190h-47c-2-12 1-28-3-38-12 25-28 42-61 42" id="af"/><g id="p"><use transform="matrix(0.05,0,0,0.05,0,0)" xlink:href="#ac"/><use transform="matrix(0.05,0,0,0.05,12,0)" xlink:href="#ad"/><use transform="matrix(0.05,0,0,0.05,22,0)" xlink:href="#v"/><use transform="matrix(0.05,0,0,0.05,32,0)" xlink:href="#ae"/><use transform="matrix(0.05,0,0,0.05,37,0)" xlink:href="#af"/><use transform="matrix(0.05,0,0,0.05,47.95,0)" xlink:href="#v"/><use transform="matrix(0.05,0,0,0.05,57.95,0)" xlink:href="#ab"/><use transform="matrix(0.05,0,0,0.05,63.900000000000006,0)" xlink:href="#Z"/><use transform="matrix(0.05,0,0,0.05,74.85000000000001,0)" xlink:href="#z"/></g><path d="M143 4C61 4 22-44 18-125c-5-107 100-154 193-111 17 8 29 25 37 43l-32 9c-13-25-37-40-76-40-61 0-88 39-88 99 0 61 29 100 91 101 35 0 62-11 79-27v-45h-74v-28h105v86C228-13 192 4 143 4" id="ag"/><g id="q"><use transform="matrix(0.05,0,0,0.05,0,0)" xlink:href="#ag"/><use transform="matrix(0.05,0,0,0.05,14,0)" xlink:href="#F"/><use transform="matrix(0.05,0,0,0.05,24,0)" xlink:href="#E"/><use transform="matrix(0.05,0,0,0.05,34,0)" xlink:href="#F"/><use transform="matrix(0.05,0,0,0.05,44,0)" xlink:href="#M"/><use transform="matrix(0.05,0,0,0.05,49.95,0)" xlink:href="#K"/><use transform="matrix(0.05,0,0,0.05,59.95,0)" xlink:href="#X"/><use transform="matrix(0.05,0,0,0.05,64.95,0)" xlink:href="#F"/><use transform="matrix(0.05,0,0,0.05,74.95,0)" xlink:href="#U"/></g><g id="r"><use transform="matrix(0.05,0,0,0.05,0,0)" xlink:href="#J"/><use transform="matrix(0.05,0,0,0.05,9,0)" xlink:href="#H"/><use transform="matrix(0.05,0,0,0.05,19,0)" xlink:href="#U"/><use transform="matrix(0.05,0,0,0.05,29,0)" xlink:href="#F"/></g><path d="M108 0H70L1-190h34L89-25l56-165h34" id="ah"/><g id="s"><use transform="matrix(0.05,0,0,0.05,0,0)" xlink:href="#F"/><use transform="matrix(0.05,0,0,0.05,10,0)" xlink:href="#ah"/><use transform="matrix(0.05,0,0,0.05,19,0)" xlink:href="#K"/><use transform="matrix(0.05,0,0,0.05,29,0)" xlink:href="#V"/><use transform="matrix(0.05,0,0,0.05,32.95,0)" xlink:href="#B"/><use transform="matrix(0.05,0,0,0.05,42.95,0)" xlink:href="#K"/><use transform="matrix(0.05,0,0,0.05,52.95,0)" xlink:href="#X"/><use transform="matrix(0.05,0,0,0.05,57.95,0)" xlink:href="#D"/><use transform="matrix(0.05,0,0,0.05,61.900000000000006,0)" xlink:href="#H"/><use transform="matrix(0.05,0,0,0.05,71.9,0)" xlink:href="#E"/></g><g id="t"><use transform="matrix(0.05,0,0,0.05,0,0)" xlink:href="#N"/><use transform="matrix(0.05,0,0,0.05,5.95,0)" xlink:href="#M"/><use transform="matrix(0.05,0,0,0.05,11.9,0)" xlink:href="#B"/><use transform="matrix(0.05,0,0,0.05,21.9,0)" xlink:href="#E"/><use transform="matrix(0.05,0,0,0.05,31.899999999999995,0)" xlink:href="#X"/><use transform="matrix(0.05,0,0,0.05,36.9,0)" xlink:href="#D"/><use transform="matrix(0.05,0,0,0.05,40.85,0)" xlink:href="#W"/><use transform="matrix(0.05,0,0,0.05,55.800000000000004,0)" xlink:href="#F"/><use transform="matrix(0.05,0,0,0.05,65.80000000000001,0)" xlink:href="#Q"/></g></defs></g></svg>